<?xml version="1.0" encoding="UTF-8"?>
<svg xmlns="http://www.w3.org/2000/svg" width="760" height="300" viewBox="0 0 760 300" font-family="Helvetica, Arial, sans-serif">
<rect width="760" height="300" fill="#ffffff"/>
<text x="24" y="34" font-size="16" font-weight="700" fill="#24292f">Figure 1 — Three-view interoperability architecture</text>
<text x="24" y="54" font-size="12" fill="#5f6b7a">CDSL source records pass through one neutral model into two complementary standard profiles.</text>
<rect x="24" y="90" width="150" height="80" rx="6" fill="#edf5fb" stroke="#8db4d8" stroke-width="1.5"/><text x="99" y="116" font-size="14" font-weight="700" fill="#24292f" text-anchor="middle">CDSL</text><text x="99" y="136" font-size="11" fill="#5f6b7a" text-anchor="middle">MW · PWG · PWK raw</text>
<line x1="174" y1="130" x2="242" y2="130" stroke="#5f6b7a" stroke-width="2"/><polygon points="250,130 241,125 241,135" fill="#5f6b7a"/>
<rect x="250" y="90" width="170" height="80" rx="6" fill="#fff7df" stroke="#ebc169" stroke-width="1.5"/><text x="335" y="116" font-size="14" font-weight="700" fill="#24292f" text-anchor="middle">Neutral model</text><text x="335" y="136" font-size="11" fill="#5f6b7a" text-anchor="middle">senses · citations · relations</text>
<line x1="420" y1="110" x2="492" y2="110" stroke="#5f6b7a" stroke-width="2"/><polygon points="500,110 491,105 491,115" fill="#5f6b7a"/>
<line x1="420" y1="150" x2="492" y2="150" stroke="#5f6b7a" stroke-width="2"/><polygon points="500,150 491,145 491,155" fill="#5f6b7a"/>
<rect x="500" y="60" width="236" height="64" rx="6" fill="#edf5fb" stroke="#8db4d8" stroke-width="1.5"/><text x="618" y="86" font-size="14" font-weight="700" fill="#24292f" text-anchor="middle">TEI</text><text x="618" y="106" font-size="11" fill="#5f6b7a" text-anchor="middle">archival profile + Lex-0 baseline</text>
<rect x="500" y="150" width="236" height="64" rx="6" fill="#edf5fb" stroke="#8db4d8" stroke-width="1.5"/><text x="618" y="176" font-size="14" font-weight="700" fill="#24292f" text-anchor="middle">OntoLex / FrAC</text><text x="618" y="196" font-size="11" fill="#5f6b7a" text-anchor="middle">Lexicog multi-resource graph</text>
<text x="250" y="200" font-size="12" fill="#5f6b7a">Loss reports record what each mapping cannot carry.</text>
</svg>
