<?xml version="1.0" encoding="UTF-8"?>
<svg xmlns="http://www.w3.org/2000/svg" width="760" height="554" viewBox="0 0 760 554" font-family="Helvetica, Arial, sans-serif">
<rect width="760" height="554" fill="#ffffff"/>
<text x="24" y="34" font-size="16" font-weight="700" fill="#24292f">Figure 5 — How TEI, OntoLex and MDF fail</text>
<text x="24" y="54" font-size="12" fill="#5f6b7a">1722 loss reports. TEI is never lossy for the Western cases; OntoLex is never clean; MDF, the deliberately flat field schema, is lossy across the board; the neutral lineage lane carries the editorial source-collapse.</text>
<text x="24" y="86" font-size="13" font-weight="700" fill="#24292f">Target × status</text>
<text x="78" y="119" font-size="13" font-weight="700" fill="#24292f" text-anchor="end">TEI</text><rect x="90" y="100" width="55" height="28" fill="#1a7f37"/><text x="117.5" y="119" font-size="11" fill="#fff" text-anchor="middle">75</text><rect x="145" y="100" width="159" height="28" fill="#d4a017"/><text x="224.5" y="119" font-size="11" fill="#fff" text-anchor="middle">217</text><rect x="304" y="100" width="4" height="28" fill="#b42318"/>
<text x="78" y="165" font-size="13" font-weight="700" fill="#24292f" text-anchor="end">ONTOLEX</text><rect x="90" y="146" width="487" height="28" fill="#d4a017"/><text x="333.5" y="165" font-size="11" fill="#fff" text-anchor="middle">662</text><rect x="577" y="146" width="73" height="28" fill="#b42318"/><text x="613.5" y="165" font-size="11" fill="#fff" text-anchor="middle">100</text>
<text x="78" y="211" font-size="13" font-weight="700" fill="#24292f" text-anchor="end">MDF</text><rect x="90" y="192" width="215" height="28" fill="#b42318"/><text x="197.5" y="211" font-size="11" fill="#fff" text-anchor="middle">292</text>
<text x="78" y="257" font-size="13" font-weight="700" fill="#24292f" text-anchor="end">NEUTRAL</text><rect x="90" y="238" width="94" height="28" fill="#d4a017"/><text x="137" y="257" font-size="11" fill="#fff" text-anchor="middle">128</text><rect x="184" y="238" width="178" height="28" fill="#b42318"/><text x="273" y="257" font-size="11" fill="#fff" text-anchor="middle">242</text>
<rect x="90" y="290" width="12" height="12" fill="#1a7f37"/><text x="108" y="300" font-size="12" fill="#24292f">clean</text>
<rect x="220" y="290" width="12" height="12" fill="#d4a017"/><text x="238" y="300" font-size="12" fill="#24292f">partial</text>
<rect x="350" y="290" width="12" height="12" fill="#b42318"/><text x="368" y="300" font-size="12" fill="#24292f">lossy</text>
<text x="24" y="338" font-size="13" font-weight="700" fill="#24292f">By cause</text>
<text x="240" y="361" font-size="11" fill="#24292f" text-anchor="end">model-vocabulary-gap</text><rect x="248" y="350" width="360" height="14" rx="2" fill="#8db4d8"/><text x="614" y="361" font-size="11" fill="#5f6b7a">1034</text>
<text x="240" y="387" font-size="11" fill="#24292f" text-anchor="end">editorial-compression</text><rect x="248" y="376" width="128" height="14" rx="2" fill="#8db4d8"/><text x="382" y="387" font-size="11" fill="#5f6b7a">369</text>
<text x="240" y="413" font-size="11" fill="#24292f" text-anchor="end">print-compression</text><rect x="248" y="402" width="42" height="14" rx="2" fill="#8db4d8"/><text x="296" y="413" font-size="11" fill="#5f6b7a">120</text>
<text x="240" y="439" font-size="11" fill="#24292f" text-anchor="end">cdsl-markup-gap</text><rect x="248" y="428" width="41" height="14" rx="2" fill="#8db4d8"/><text x="295" y="439" font-size="11" fill="#5f6b7a">117</text>
<text x="240" y="465" font-size="11" fill="#24292f" text-anchor="end">none</text><rect x="248" y="454" width="26" height="14" rx="2" fill="#8db4d8"/><text x="280" y="465" font-size="11" fill="#5f6b7a">75</text>
<text x="240" y="491" font-size="11" fill="#24292f" text-anchor="end">sanskrit-convention</text><rect x="248" y="480" width="2" height="14" rx="2" fill="#8db4d8"/><text x="256" y="491" font-size="11" fill="#5f6b7a">6</text>
<text x="240" y="517" font-size="11" fill="#24292f" text-anchor="end">data-quality</text><rect x="248" y="506" width="0" height="14" rx="2" fill="#8db4d8"/><text x="254" y="517" font-size="11" fill="#5f6b7a">1</text>
</svg>
